<svg
   viewBox="0 0 640 400"
   preserveAspectRatio="xMidYMid meet"
   height="400"
   width="640"
   xmlns="http://www.w3.org/2000/svg"
   xmlns:xlink="http://www.w3.org/1999/xlink">
   <rect width="640" height="400" fill="none" x="0" y="0" opacity="1" data-fill-palette-color="background" id="background"></rect>
   <g id="tight-bounds" transform="matrix(1,0,0,1,148.57422074112307,28.57422074112307)">
      <svg viewBox="0 0 342.85155851775386 342.85155851775386" height="342.85155851775386" width="342.85155851775386">
         <g>
            <svg viewBox="0 0 342.85155851775386 342.85155851775386" height="342.85155851775386" width="342.85155851775386">
               <g>
                  <path d="M0 171.426c0-94.676 76.75-171.426 171.426-171.426 94.676 0 171.426 76.75 171.426 171.426 0 94.676-76.75 171.426-171.426 171.426-94.676 0-171.426-76.75-171.426-171.426zM171.426 340.183c93.202 0 168.757-75.555 168.757-168.757 0-93.202-75.555-168.757-168.757-168.757-93.202 0-168.757 75.555-168.757 168.757 0 93.202 75.555 168.757 168.757 168.757z" data-fill-palette-color="tertiary" fill="#ffdb99" stroke="transparent"></path>
                  <ellipse rx="164.56874808852186" ry="164.56874808852186" cx="171.42577925887693" cy="171.42577925887693" fill="#ffdb99" stroke="transparent" stroke-width="0" fill-opacity="1" data-fill-palette-color="tertiary"></ellipse>
               </g>
               <g transform="matrix(1,0,0,1,64.84655864529837,102.58526438633768)">
                  <svg viewBox="0 0 213.1584412271571 137.6810297450785" height="137.6810297450785" width="213.1584412271571">
                     <g>
                        <svg viewBox="0 0 213.1584412271571 137.6810297450785" height="137.6810297450785" width="213.1584412271571">
                           <g>
                              <svg viewBox="0 0 213.1584412271571 137.6810297450785" height="137.6810297450785" width="213.1584412271571">
                                 <g transform="matrix(1,0,0,1,0,82.81334265960263)">
                                    <svg viewBox="0 0 213.1584412271571 54.86768708547585" height="54.86768708547585" width="213.1584412271571">
                                       <g id="textblocktransform">
                                          <svg viewBox="0 0 213.1584412271571 54.86768708547585" height="54.86768708547585" width="213.1584412271571" id="textblock">
                                             <g>
                                                <svg viewBox="0 0 213.1584412271571 29.593008639061104" height="29.593008639061104" width="213.1584412271571">
                                                   <g transform="matrix(1,0,0,1,0,0)">
                                                      <svg width="213.1584412271571" viewBox="1.7000000476837158 -38.150001525878906 360.1099853515625 50" height="29.593008639061104" data-palette-color="#050816">
                                                         <path d="M5.8 0L1.7 0 14.3-36.8 19.4-36.8 32 0 27.9 0 24.2-10.5 9.4-10.5 5.8 0ZM16.85-33.3L10.4-14.1 23.2-14.1 16.85-33.3ZM49.85 0.3L49.85 0.3Q47.95 0.3 46.32-0.18 44.7-0.65 43.35-1.33 42-2 40.95-2.7L40.95-2.7 40.2 0 37 0 37-38.15 40.95-38.15 40.95-24.25Q42.85-25.35 45.25-26.2 47.65-27.05 49.7-27.05L49.7-27.05Q52.9-27.05 55-25.7 57.1-24.35 58.17-21.3 59.25-18.25 59.25-13.15L59.25-13.15Q59.25-9 58.3-5.98 57.35-2.95 55.27-1.33 53.2 0.3 49.85 0.3ZM48.6-3L48.6-3Q50.8-3 52.27-4.13 53.75-5.25 54.52-7.55 55.3-9.85 55.3-13.3L55.3-13.3Q55.3-17.7 54.42-19.93 53.55-22.15 52.05-22.95 50.55-23.75 48.6-23.75L48.6-23.75Q46.35-23.75 44.57-23.13 42.8-22.5 40.95-21.5L40.95-21.5 40.95-5.15Q42.5-4.4 44.37-3.7 46.25-3 48.6-3ZM78.75 0.3L78.75 0.3Q76.85 0.3 75.22-0.18 73.6-0.65 72.25-1.33 70.9-2 69.85-2.7L69.85-2.7 69.1 0 65.9 0 65.9-38.15 69.85-38.15 69.85-24.25Q71.75-25.35 74.15-26.2 76.55-27.05 78.6-27.05L78.6-27.05Q81.8-27.05 83.9-25.7 86-24.35 87.07-21.3 88.15-18.25 88.15-13.15L88.15-13.15Q88.15-9 87.2-5.98 86.25-2.95 84.17-1.33 82.1 0.3 78.75 0.3ZM77.5-3L77.5-3Q79.7-3 81.17-4.13 82.65-5.25 83.42-7.55 84.2-9.85 84.2-13.3L84.2-13.3Q84.2-17.7 83.32-19.93 82.45-22.15 80.95-22.95 79.45-23.75 77.5-23.75L77.5-23.75Q75.25-23.75 73.47-23.13 71.7-22.5 69.85-21.5L69.85-21.5 69.85-5.15Q71.4-4.4 73.27-3.7 75.15-3 77.5-3ZM104.99 0.3L104.99 0.3Q100.79 0.3 98.37-0.95 95.94-2.2 94.89-5.2 93.84-8.2 93.84-13.4L93.84-13.4Q93.84-18.7 94.92-21.68 95.99-24.65 98.44-25.85 100.89-27.05 105.04-27.05L105.04-27.05Q108.59-27.05 110.82-26.25 113.04-25.45 114.12-23.53 115.19-21.6 115.19-18.2L115.19-18.2Q115.19-15.85 114.27-14.43 113.34-13 111.62-12.38 109.89-11.75 107.54-11.75L107.54-11.75 97.79-11.75Q97.84-8.5 98.49-6.53 99.14-4.55 100.87-3.68 102.59-2.8 105.94-2.8L105.94-2.8 114.54-2.8 114.54-0.4Q112.24-0.1 110.04 0.1 107.84 0.3 104.99 0.3ZM97.74-14.35L97.74-14.35 107.24-14.35Q109.49-14.35 110.57-15.18 111.64-16 111.64-18.15L111.64-18.15Q111.64-20.45 110.97-21.73 110.29-23 108.87-23.53 107.44-24.05 105.04-24.05L105.04-24.05Q102.24-24.05 100.64-23.23 99.04-22.4 98.39-20.3 97.74-18.2 97.74-14.35ZM127.04 0.3L127.04 0.3Q124.09 0.3 122.19-1.45 120.29-3.2 120.29-6.4L120.29-6.4 120.29-8.3Q120.29-11.45 122.37-13.4 124.44-15.35 128.64-15.35L128.64-15.35 137.69-15.35 137.69-18.65Q137.69-20.3 137.12-21.48 136.54-22.65 135.07-23.3 133.59-23.95 130.79-23.95L130.79-23.95 122.49-23.95 122.49-26.3Q124.24-26.6 126.57-26.85 128.89-27.1 132.04-27.1L132.04-27.1Q135.29-27.15 137.44-26.3 139.59-25.45 140.62-23.63 141.64-21.8 141.64-18.85L141.64-18.85 141.64 0 138.59 0 137.84-3.05Q137.64-2.85 136.62-2.35 135.59-1.85 134.02-1.23 132.44-0.6 130.62-0.15 128.79 0.3 127.04 0.3ZM128.69-2.65L128.69-2.65Q129.59-2.6 130.74-2.85 131.89-3.1 133.09-3.43 134.29-3.75 135.32-4.1 136.34-4.45 136.99-4.7 137.64-4.95 137.69-4.95L137.69-4.95 137.69-13.35 129.54-13Q126.69-12.9 125.47-11.6 124.24-10.3 124.24-8.25L124.24-8.25 124.24-7.05Q124.24-5.45 124.92-4.48 125.59-3.5 126.62-3.1 127.64-2.7 128.69-2.65ZM159.49 0.05L156.09 0.05Q153.79 0.05 152.24-0.78 150.69-1.6 149.89-3.48 149.09-5.35 149.09-8.55L149.09-8.55 149.09-38.15 153.04-38.15 153.04-9.05Q153.04-6.65 153.49-5.43 153.94-4.2 154.79-3.73 155.64-3.25 156.79-3.1L156.79-3.1 159.49-2.8 159.49 0.05ZM181.33 0L177.33 0 177.33-36.8 181.33-36.8 181.33 0ZM192.93 0L188.98 0 188.98-26.7 192.08-26.7 192.93-23.75Q194.83-25.1 197.38-26.13 199.93-27.15 202.68-27.15L202.68-27.15Q205.63-27.15 207.43-25.9 209.23-24.65 210.08-22.6 210.93-20.55 210.93-18.15L210.93-18.15 210.93 0 206.98 0 206.98-17.7Q206.98-19.4 206.31-20.73 205.63-22.05 204.41-22.8 203.18-23.55 201.38-23.55L201.38-23.55Q199.73-23.55 198.31-23.23 196.88-22.9 195.61-22.33 194.33-21.75 192.93-20.95L192.93-20.95 192.93 0ZM242.38 0.3L242.38 0.3Q241.28 0.3 239.75 0.23 238.23 0.15 236.63 0.03 235.03-0.1 233.6-0.25 232.18-0.4 231.23-0.6L231.23-0.6 231.23-3.65Q232.48-3.55 234.28-3.45 236.08-3.35 238.15-3.3 240.23-3.25 242.23-3.25L242.23-3.25Q244.48-3.25 246.28-3.7 248.08-4.15 249.15-5.35 250.23-6.55 250.23-8.8L250.23-8.8 250.23-11.3Q250.23-13.85 248.93-15.18 247.63-16.5 244.73-16.5L244.73-16.5 240.78-16.5Q236.23-16.5 233.65-18.5 231.08-20.5 231.08-25.4L231.08-25.4 231.08-27.5Q231.08-32.7 233.88-34.9 236.68-37.1 241.78-37.1L241.78-37.1Q243.38-37.1 245.38-36.93 247.38-36.75 249.25-36.52 251.13-36.3 252.38-36.05L252.38-36.05 252.38-33Q250.18-33.2 247.4-33.35 244.63-33.5 242.18-33.5L242.18-33.5Q239.93-33.5 238.28-32.98 236.63-32.45 235.75-31.13 234.88-29.8 234.88-27.35L234.88-27.35 234.88-25.65Q234.88-22.6 236.48-21.45 238.08-20.3 240.93-20.3L240.93-20.3 245.18-20.3Q248.23-20.3 250.18-19.2 252.13-18.1 253.08-16.18 254.03-14.25 254.03-11.75L254.03-11.75 254.03-8.9Q254.03-5.2 252.45-3.2 250.88-1.2 248.25-0.45 245.63 0.3 242.38 0.3ZM264.72 11.85L260.77 11.85 260.77-26.7 263.97-26.7 264.72-23.95Q265.62-24.6 267.05-25.33 268.47-26.05 270.15-26.55 271.82-27.05 273.47-27.05L273.47-27.05Q276.07-27.05 277.9-25.93 279.72-24.8 280.87-22.9 282.02-21 282.52-18.55 283.02-16.1 283.02-13.4L283.02-13.4Q283.02-8.9 282-5.83 280.97-2.75 278.87-1.2 276.77 0.35 273.47 0.35L273.47 0.35Q271.22 0.35 268.95-0.38 266.67-1.1 264.72-2.2L264.72-2.2 264.72 11.85ZM272.37-3L272.37-3Q274.27-3 275.77-3.95 277.27-4.9 278.17-7.18 279.07-9.45 279.07-13.4L279.07-13.4Q279.07-17.15 278.12-19.43 277.17-21.7 275.67-22.73 274.17-23.75 272.37-23.75L272.37-23.75Q270.07-23.75 268.15-23.03 266.22-22.3 264.72-21.5L264.72-21.5 264.72-5.15Q266.47-4.2 268.45-3.6 270.42-3 272.37-3ZM294.87 0.3L294.87 0.3Q291.92 0.3 290.02-1.45 288.12-3.2 288.12-6.4L288.12-6.4 288.12-8.3Q288.12-11.45 290.19-13.4 292.27-15.35 296.47-15.35L296.47-15.35 305.52-15.35 305.52-18.65Q305.52-20.3 304.94-21.48 304.37-22.65 302.89-23.3 301.42-23.95 298.62-23.95L298.62-23.95 290.32-23.95 290.32-26.3Q292.07-26.6 294.39-26.85 296.72-27.1 299.87-27.1L299.87-27.1Q303.12-27.15 305.27-26.3 307.42-25.45 308.44-23.63 309.47-21.8 309.47-18.85L309.47-18.85 309.47 0 306.42 0 305.67-3.05Q305.47-2.85 304.44-2.35 303.42-1.85 301.85-1.23 300.27-0.6 298.44-0.15 296.62 0.3 294.87 0.3ZM296.52-2.65L296.52-2.65Q297.42-2.6 298.57-2.85 299.72-3.1 300.92-3.43 302.12-3.75 303.14-4.1 304.17-4.45 304.82-4.7 305.47-4.95 305.52-4.95L305.52-4.95 305.52-13.35 297.37-13Q294.52-12.9 293.3-11.6 292.07-10.3 292.07-8.25L292.07-8.25 292.07-7.05Q292.07-5.45 292.75-4.48 293.42-3.5 294.44-3.1 295.47-2.7 296.52-2.65ZM326.62 0.3L326.62 0.3Q324.37 0.3 322.42-0.3 320.47-0.9 319.02-2.4 317.57-3.9 316.77-6.55 315.97-9.2 315.97-13.3L315.97-13.3Q315.97-17.45 316.72-20.13 317.47-22.8 318.87-24.3 320.27-25.8 322.27-26.4 324.27-27 326.72-27L326.72-27Q328.72-27 331.07-26.83 333.42-26.65 335.57-26.3L335.57-26.3 335.57-23.95 327.77-23.95Q325.22-23.95 323.47-23.1 321.72-22.25 320.82-19.93 319.92-17.6 319.92-13.2L319.92-13.2Q319.92-8.95 320.87-6.7 321.82-4.45 323.57-3.63 325.32-2.8 327.82-2.8L327.82-2.8 335.97-2.8 335.97-0.5Q334.82-0.3 333.29-0.1 331.77 0.1 330.07 0.2 328.37 0.3 326.62 0.3ZM351.62 0.3L351.62 0.3Q347.42 0.3 344.99-0.95 342.56-2.2 341.51-5.2 340.47-8.2 340.47-13.4L340.47-13.4Q340.47-18.7 341.54-21.68 342.62-24.65 345.06-25.85 347.51-27.05 351.67-27.05L351.67-27.05Q355.22-27.05 357.44-26.25 359.67-25.45 360.74-23.53 361.81-21.6 361.81-18.2L361.81-18.2Q361.81-15.85 360.89-14.43 359.97-13 358.24-12.38 356.51-11.75 354.17-11.75L354.17-11.75 344.42-11.75Q344.47-8.5 345.12-6.53 345.76-4.55 347.49-3.68 349.22-2.8 352.56-2.8L352.56-2.8 361.17-2.8 361.17-0.4Q358.87-0.1 356.67 0.1 354.47 0.3 351.62 0.3ZM344.37-14.35L344.37-14.35 353.87-14.35Q356.12-14.35 357.19-15.18 358.26-16 358.26-18.15L358.26-18.15Q358.26-20.45 357.59-21.73 356.92-23 355.49-23.53 354.06-24.05 351.67-24.05L351.67-24.05Q348.87-24.05 347.26-23.23 345.67-22.4 345.01-20.3 344.37-18.2 344.37-14.35Z" opacity="1" transform="matrix(1,0,0,1,0,0)" fill="#050816" class="wordmark-text-0" data-fill-palette-color="quaternary" id="text-0"></path>
                                                      </svg>
                                                   </g>
                                                </svg>
                                             </g>
                                       <g transform="matrix(1,0,0,1,0,36.57920774653609)">
                                          <svg viewBox="0 0 213.1584412271571 18.288479338939762" height="18.288479338939762" width="213.1584412271571">
                                             <g transform="matrix(1,0,0,1,0,0)">
                                                <svg width="213.1584412271571" viewBox="3.9000000953674316 -35.79999923706055 472.0400085449219 40.5" height="18.288479338939762" data-palette-color="#050816">
                                                   <path d="M27.9 0L27.9-26.75 18.8 0 15.75 0 6.7-26.75 6.7 0 3.9 0 3.9-35 6.7-35 17.25-4.3 27.9-35 30.7-35 30.7 0 27.9 0ZM73-9.2Q73-5 70.7-2.25 68.4 0.5 63.75 0.5L63.75 0.5Q59.1 0.5 56.72-2.27 54.35-5.05 54.35-9.2L54.35-9.2 54.35-15.8Q54.35-20.55 56.77-23.08 59.2-25.6 63.75-25.6L63.75-25.6Q68.1-25.6 70.55-22.98 73-20.35 73-15.8L73-15.8 73-9.2ZM70.2-15.8Q70.2-19.55 68.47-21.3 66.75-23.05 63.75-23.05L63.75-23.05Q60.65-23.05 58.9-21.3 57.15-19.55 57.15-15.8L57.15-15.8 57.15-8.7Q57.15-5.7 58.92-3.85 60.7-2 63.75-2L63.75-2Q66.85-2 68.52-3.83 70.2-5.65 70.2-8.7L70.2-8.7 70.2-15.8ZM112.94-9.2Q112.94-5 110.64-2.25 108.34 0.5 103.69 0.5L103.69 0.5Q99.04 0.5 96.67-2.27 94.29-5.05 94.29-9.2L94.29-9.2 94.29-15.8Q94.29-20.55 96.72-23.08 99.14-25.6 103.69-25.6L103.69-25.6Q108.04-25.6 110.49-22.98 112.94-20.35 112.94-15.8L112.94-15.8 112.94-9.2ZM110.14-15.8Q110.14-19.55 108.42-21.3 106.69-23.05 103.69-23.05L103.69-23.05Q100.59-23.05 98.84-21.3 97.09-19.55 97.09-15.8L97.09-15.8 97.09-8.7Q97.09-5.7 98.87-3.85 100.64-2 103.69-2L103.69-2Q106.79-2 108.47-3.83 110.14-5.65 110.14-8.7L110.14-8.7 110.14-15.8ZM149.24 0L149.24-17.15Q149.24-20.2 147.46-21.58 145.69-22.95 142.89-22.95L142.89-22.95Q141.19-22.95 139.44-22.48 137.69-22 136.34-21.25L136.34-21.25 136.34 0 133.54 0 133.54-25.05 136.34-25.05 136.14-23.35Q137.34-24.4 139.19-24.93 141.04-25.45 143.04-25.45L143.04-25.45Q145.79-25.45 147.74-24.55L147.74-24.55Q149.74-23.65 150.86-21.85 151.99-20.05 151.99-17.3L151.99-17.3 151.99 0 149.24 0ZM192.48 4.7Q186.48 4.7 184.38 0.55L184.38 0.55Q180.18 0.4 177.21-1.95 174.23-4.3 174.23-9.25L174.23-9.25 174.23-25.35Q174.23-30.5 177.06-33.15 179.88-35.8 184.83-35.8L184.83-35.8Q189.78-35.8 192.51-33 195.23-30.2 195.23-25.3L195.23-25.3 195.23-9.25Q195.23-4.9 192.96-2.58 190.68-0.25 187.18 0.35L187.18 0.35Q188.58 2.05 192.48 2L192.48 2 192.48 4.7ZM192.48-25.8Q192.48-29.45 190.36-31.3 188.23-33.15 184.73-33.15L184.73-33.15Q181.23-33.15 179.13-31.3 177.03-29.45 177.03-25.8L177.03-25.8 177.03-9.3Q177.03-6.1 178.81-4.28 180.58-2.45 183.48-2.15L183.48-2.15Q183.28-3.35 183.28-5.05L183.28-5.05 183.28-8.7 186.08-8.7 186.08-5.1Q186.08-3.05 186.23-2.2L186.23-2.2Q189.08-2.55 190.78-4.33 192.48-6.1 192.48-9.35L192.48-9.35 192.48-25.8ZM231.98 0L232.18-2.55Q230.98-1.05 229.15-0.25 227.33 0.55 225.48 0.55L225.48 0.55Q216.08 0.55 216.08-8.6L216.08-8.6 216.08-25.05 218.88-25.05 218.88-8.25Q218.88-5.05 220.65-3.5 222.43-1.95 225.48-1.95L225.48-1.95Q228.48-1.95 230.2-3.48 231.93-5 231.93-8.25L231.93-8.25 231.93-25.05 234.73-25.05 234.73 0 231.98 0ZM273.47 0Q268.07 0.55 265.67 0.55L265.67 0.55Q260.42 0.55 257.32-1.4 254.22-3.35 254.22-8.45L254.22-8.45 254.22-12.6Q254.22-17.55 257.67-19.25L257.67-19.25Q259.32-20.1 261.87-20.1L261.87-20.1Q264.22-20.1 266.62-19.33 269.02-18.55 270.67-17.3L270.67-17.3Q270.67-20.05 269.07-21.68 267.47-23.3 262.92-23.3L262.92-23.3 263.07-25.45Q267.87-25.45 270.15-23.93 272.42-22.4 272.95-20.3 273.47-18.2 273.47-14.9L273.47-14.9 273.47 0ZM270.67-15.15Q268.62-16.1 266.3-16.8 263.97-17.5 262.02-17.5L262.02-17.5Q256.97-17.5 256.97-12.45L256.97-12.45 256.97-8.1Q256.97-4.85 259.22-3.38 261.47-1.9 265.62-1.9L265.62-1.9Q267.77-1.9 270.67-2.3L270.67-2.3 270.67-15.15ZM309.37 0L299.77-15.85 297.17-13.6 297.17 0 294.37 0 294.37-35 297.17-35 297.17-16.75 307.17-26 309.17-24.05 301.77-17.6Q305.17-11.95 312.72 0L312.72 0 309.37 0ZM345.76-1.75Q343.96-0.6 341.66 0 339.36 0.6 337.06 0.6L337.06 0.6Q333.36 0.6 331.19-1.23 329.01-3.05 329.01-6.7L329.01-6.7 329.01-16.95Q329.01-21 331.54-23.25 334.06-25.5 338.21-25.5L338.21-25.5Q342.36-25.5 344.69-23.28 347.01-21.05 347.01-17.1L347.01-17.1 347.01-10.6 331.81-9.75 331.81-6.7Q331.81-4.3 333.36-3.1 334.91-1.9 337.41-1.9L337.41-1.9Q340.91-1.9 344.66-3.9L344.66-3.9 345.76-1.75ZM344.21-17.45Q344.21-20.55 342.26-21.83 340.31-23.1 338.16-23.1L338.16-23.1Q335.41-23.1 333.61-21.6 331.81-20.1 331.81-16.9L331.81-16.9 331.81-12.5 344.21-13.1 344.21-17.45ZM395.55 0L395.55-2.65 408.25-21.9Q410.05-24.8 410.05-27.2L410.05-27.2Q410.05-29.75 408.35-31.3 406.65-32.85 404.4-32.85L404.4-32.85Q402.5-32.85 401-31.65 399.5-30.45 398.8-28.5L398.8-28.5 396.2-29.5Q397.15-32.15 399.23-33.83 401.3-35.5 404.4-35.5L404.4-35.5Q406.85-35.5 408.83-34.45 410.8-33.4 411.9-31.55 413-29.7 413-27.4L413-27.4Q413-24.15 410.8-20.65L410.8-20.65 398.8-2.6 413.1-2.6 413.1 0 395.55 0ZM432.25 0Q431.6 0 431.1-0.5 430.6-1 430.6-1.65L430.6-1.65Q430.6-2.35 431.1-2.83 431.6-3.3 432.25-3.3L432.25-3.3Q432.95-3.3 433.42-2.83 433.9-2.35 433.9-1.65L433.9-1.65Q433.9-1 433.42-0.5 432.95 0 432.25 0L432.25 0ZM475.94-9.25Q475.94-4.2 472.87-1.83 469.79 0.55 465.49 0.55L465.49 0.55Q462.79 0.55 460.39-0.43 457.99-1.4 456.47-3.6 454.94-5.8 454.94-9.25L454.94-9.25 454.94-25.35Q454.94-30.5 457.77-33.15 460.59-35.8 465.54-35.8L465.54-35.8Q470.49-35.8 473.22-33 475.94-30.2 475.94-25.3L475.94-25.3 475.94-9.25ZM473.19-25.8Q473.19-29.45 471.07-31.3 468.94-33.15 465.44-33.15L465.44-33.15Q461.94-33.15 459.84-31.3 457.74-29.45 457.74-25.8L457.74-25.8 457.74-9.3Q457.74-5.75 459.92-3.93 462.09-2.1 465.44-2.1L465.44-2.1Q468.84-2.1 471.02-3.88 473.19-5.65 473.19-9.35L473.19-9.35 473.19-25.8Z" opacity="1" transform="matrix(1,0,0,1,0,0)" fill="#050816" class="slogan-text-1" data-fill-palette-color="quaternary" id="text-1"></path>
                                                </svg>
                                             </g>
                                          </svg>
                                       </g>
                                    </svg>
                        </g>
               </svg>
               </g>
               <g transform="matrix(1,0,0,1,68.66564883751474,0)">
                  <svg viewBox="0 0 75.82714355212764 75.82714355212764" height="75.82714355212764" width="75.82714355212764">
                     <g>
                        <svg xmlns="http://www.w3.org/2000/svg" xmlns:xlink="http://www.w3.org/1999/xlink" version="1.1" x="0" y="0" viewBox="7.5 7 86 86" enable-background="new 0 0 100 100" xml:space="preserve" height="75.82714355212764" width="75.82714355212764" class="icon-icon-0" data-fill-palette-color="quaternary" id="icon-0">
                           <path fill-rule="evenodd" clip-rule="evenodd" d="M50.5 93c-23.748 0-43-19.251-43-43 0-23.748 19.252-43 43-43s43 19.252 43 43C93.5 73.749 74.248 93 50.5 93zM60.578 87.625c1.855 0 3.359-1.504 3.359-3.359s-1.504-3.359-3.359-3.359-3.359 1.504-3.359 3.359S58.723 87.625 60.578 87.625zM81.167 46.322c-1.205-10.155-7.315-18.805-15.915-23.485-0.154-3.574-3.078-6.43-6.689-6.43-2.253 0-4.234 1.118-5.454 2.819-0.861-0.072-1.728-0.132-2.608-0.132-15.732 0-28.691 11.765-30.628 26.971-0.307-0.062-0.625-0.096-0.95-0.096-2.597 0-4.703 2.105-4.703 4.703 0 2.599 2.106 4.703 4.703 4.703 0.397 0 0.777-0.064 1.146-0.157 0.894 5.243 3.09 10.033 6.27 14.021-0.004 0.082-0.025 0.161-0.025 0.245 0 2.599 2.106 4.703 4.703 4.703 0.084 0 0.163-0.021 0.246-0.025 5.28 4.212 11.959 6.744 19.239 6.744 15.331 0 28.021-11.175 30.452-25.817 1.825-0.646 3.142-2.37 3.142-4.417C84.094 48.704 82.883 47.023 81.167 46.322zM37.69 41.354c0.605 0.362 1.304 0.583 2.06 0.583 2.227 0 4.031-1.805 4.031-4.031 0-0.584-0.13-1.135-0.353-1.636 2.121-1.095 4.521-1.724 7.072-1.724 8.535 0 15.453 6.919 15.453 15.453 0 8.535-6.918 15.453-15.453 15.453-3.631 0-6.963-1.261-9.601-3.356 2.984-2.846 5.974-5.797 7.394-7.207 0.674 0.306 1.418 0.485 2.207 0.485 2.969 0 5.375-2.406 5.375-5.375 0-2.968-2.406-5.375-5.375-5.375-2.968 0-5.375 2.407-5.375 5.375 0 0.787 0.179 1.53 0.483 2.205l-7.286 7.285c-2.046-2.621-3.275-5.908-3.275-9.49C35.047 46.797 36.022 43.822 37.69 41.354zM74.688 50.672c0 1.698 0.908 3.172 2.256 3.998C74.729 67.282 63.746 76.875 50.5 76.875c-5.774 0-11.109-1.837-15.49-4.937 0.441-0.717 0.708-1.552 0.708-2.454 0-0.777-0.206-1.499-0.541-2.145 0.912-0.773 2.027-1.776 3.253-2.916 3.268 2.736 7.473 4.389 12.069 4.389 10.391 0 18.812-8.422 18.812-18.812 0-10.39-8.422-18.812-18.812-18.812-3.611 0-6.973 1.035-9.839 2.8-0.294-0.068-0.596-0.113-0.911-0.113-2.227 0-4.031 1.805-4.031 4.031 0 0.145 0.027 0.283 0.043 0.424-2.544 3.208-4.075 7.257-4.075 11.67 0 4.51 1.59 8.647 4.237 11.888l-3.219 3.219c-0.526-0.202-1.093-0.325-1.69-0.325-0.903 0-1.739 0.268-2.454 0.709-3.1-4.381-4.937-9.717-4.937-15.49 0-14.843 12.032-26.875 26.875-26.875 0.455 0 0.9 0.046 1.351 0.068 0.038 3.678 3.024 6.65 6.712 6.65 2.322 0 4.37-1.18 5.577-2.972 6.978 4.125 11.921 11.297 12.992 19.698C75.683 47.372 74.688 48.897 74.688 50.672z" fill="#050816" data-fill-palette-color="quaternary"></path>
                        </svg>
                     </g>
                  </svg>
               </g>
               </svg>
               </g>
               </svg>
               </g>
               </svg>
               </g>
            </svg>
         </g>
         <defs></defs>
      </svg>
      <rect width="342.85155851775386" height="342.85155851775386" fill="none" stroke="none" visibility="hidden"></rect>
   </g>
</svg>